<svg width="20" height="21" viewBox="0 0 20 21" fill="none" xmlns="http://www.w3.org/2000/svg">
<path d="M18.8882 12.4595C18.6125 13.8478 16.4856 15.3741 13.9944 15.6695C12.7045 15.8172 11.4343 15.9649 10.0853 15.9058C7.86983 15.7975 6.14667 15.3741 6.14667 15.3741V15.9846C6.46177 18.1705 8.33262 18.2985 10.1149 18.3674C11.9069 18.4167 13.5021 17.9145 13.5021 17.9145L13.5809 19.5392C13.5809 19.5392 12.3205 20.2087 10.0853 20.3368C8.85449 20.4057 7.31842 20.3072 5.53619 19.8444C1.67632 18.8105 1.00675 14.6848 0.908284 10.4902L0.898438 7.11277C0.898438 2.83935 3.68502 1.58883 3.68502 1.58883C5.11278 0.938953 7.53505 0.643555 10.0558 0.643555H10.1149C12.6356 0.643555 15.0578 0.938953 16.4856 1.58883C16.4856 1.58883 19.2722 2.83935 19.2722 7.11277C19.2722 7.11277 19.3116 10.2735 18.8882 12.4595ZM15.9933 7.44755C15.9933 6.38412 15.6979 5.56685 15.1563 4.92683C14.6049 4.30649 13.8763 3.98155 12.9605 3.98155C11.9168 3.98155 11.1192 4.38526 10.5776 5.19268L10.0853 6.05918L9.59298 5.19268C9.04157 4.38526 8.25385 3.98155 7.20026 3.98155C6.29437 3.98155 5.56573 4.30649 5.00447 4.92683C4.46291 5.56685 4.17735 6.38412 4.17735 7.44755V12.6269H6.24514V7.59525C6.24514 6.55151 6.68824 6.0001 7.58428 6.0001C8.56894 6.0001 9.06127 6.64013 9.06127 7.9005V10.6477H11.0995V7.9005C11.0995 6.64013 11.5918 6.0001 12.5863 6.0001C13.4725 6.0001 13.9156 6.55151 13.9156 7.59525V12.6269H15.9933V7.44755Z" fill="#3E4251"/>
</svg>
