<svg width="20" height="21" viewBox="0 0 20 21" fill="none" xmlns="http://www.w3.org/2000/svg">
<mask id="mask0_1009_7089" style="mask-type:luminance" maskUnits="userSpaceOnUse" x="0" y="0" width="20" height="21">
<path d="M19.0021 10.5001C19.0036 11.6676 18.7737 12.8239 18.3257 13.9021C17.8777 14.9803 17.2205 15.9591 16.392 16.7818C15.5703 17.602 14.595 18.2523 13.5219 18.6954C12.4487 19.1386 11.2988 19.3659 10.1378 19.3644C5.242 19.3644 1.27345 15.3958 1.27345 10.5001C1.27035 8.22716 2.14342 6.0405 3.71113 4.39477C4.53833 3.5219 5.53493 2.827 6.63996 2.3526C7.745 1.8782 8.93521 1.63427 10.1378 1.63575C11.2988 1.63425 12.4487 1.86156 13.5219 2.3047C14.595 2.74784 15.5703 3.39812 16.392 4.21837C17.2205 5.04108 17.8777 6.01981 18.3257 7.09801C18.7737 8.17621 19.0036 9.3325 19.0021 10.5001Z" fill="white" stroke="white" stroke-width="1.77286" stroke-linecap="round" stroke-linejoin="round"/>
<path d="M19.0012 10.5C17.7079 10.5 14.14 10.0125 10.9466 11.4144C7.47754 12.9377 4.96584 15.3005 3.87109 16.7702" stroke="black" stroke-width="1.77286" stroke-linecap="round" stroke-linejoin="round"/>
<path d="M6.8125 2.28027C8.19977 3.56072 11.2269 6.82058 12.3527 10.0569C13.4785 13.2933 13.8951 17.2725 14.1522 18.4049" stroke="black" stroke-width="1.77286" stroke-linecap="round" stroke-linejoin="round"/>
<path d="M1.34375 9.39225C3.01822 9.4933 7.45083 9.58416 10.2874 8.37285C13.124 7.16154 15.5648 4.93349 16.402 4.22656" stroke="black" stroke-width="1.77286" stroke-linecap="round" stroke-linejoin="round"/>
<path d="M1.93827 13.8743C2.71936 15.765 4.12807 17.3288 5.92722 18.3024M1.27345 10.5001C1.27035 8.22716 2.14342 6.0405 3.71113 4.39477C4.53833 3.5219 5.53493 2.827 6.63996 2.3526C7.745 1.8782 8.93521 1.63427 10.1378 1.63575M13.6835 2.37326C14.693 2.81494 15.6114 3.44063 16.392 4.21837C17.2205 5.04108 17.8777 6.01981 18.3257 7.09801C18.7737 8.17621 19.0036 9.3325 19.0021 10.5001C19.0021 11.5913 18.8049 12.6368 18.4436 13.6026M10.1378 19.3644C11.2988 19.3659 12.4487 19.1386 13.5219 18.6954C14.595 18.2523 15.5703 17.602 16.392 16.7818" stroke="white" stroke-width="1.77286" stroke-linecap="round" stroke-linejoin="round"/>
</mask>
<g mask="url(#mask0_1009_7089)">
<path d="M-1.67578 -1.31543H21.9561V22.3164H-1.67578V-1.31543Z" fill="#3E4251"/>
</g>
</svg>
