<svg width="12" height="15" viewBox="0 0 12 15" fill="none" xmlns="http://www.w3.org/2000/svg">
<path d="M9.78916 5.28569H9.11058V3.92854C9.11058 2.05566 7.59056 0.535645 5.71769 0.535645C3.84481 0.535645 2.3248 2.05566 2.3248 3.92854V5.28569H1.64622C0.899783 5.28569 0.289062 5.89641 0.289062 6.64285V13.4286C0.289062 14.1751 0.899783 14.7858 1.64622 14.7858H9.78916C10.5356 14.7858 11.1463 14.1751 11.1463 13.4286V6.64285C11.1463 5.89641 10.5356 5.28569 9.78916 5.28569ZM7.82128 5.28569H3.6141V3.92854C3.6141 2.76817 4.55732 1.82494 5.71769 1.82494C6.87806 1.82494 7.82128 2.76817 7.82128 3.92854V5.28569Z" fill="#C7C7C7"/>
</svg>
