<svg width="16" height="16" viewBox="0 0 16 16" fill="none" xmlns="http://www.w3.org/2000/svg">
<rect width="16" height="16" rx="2" fill="#3E4251"/>
<path d="M9.60938 9.63291C9.34356 9.32911 9.07773 8.98734 8.81191 8.60759L9.22963 8.26582C10.217 7.43038 11.0904 6.67089 12.3815 6.13924V5.91139H8.69799V6.13924C9.41951 6.82278 9.07773 7.81012 8.39418 8.49367L7.06507 9.82278H6.60938V2L3.34356 2.98734V3.21519C3.34356 3.21519 4.02709 3.51898 4.02709 4.50633V11.7595C4.02709 12.8228 3.64735 13.3544 3.2676 13.6203V13.8481H7.36887V13.6203C7.0271 13.3544 6.60938 12.8608 6.60938 11.7595V10.3544H6.95115C7.52077 11.076 7.93849 11.6835 8.35621 12.1772C9.4195 13.4304 10.217 14 11.5081 14C12.0398 14 12.6094 13.8101 12.9511 13.5063V13.3165C12.0398 12.519 11.2043 11.6076 9.60938 9.63291Z" fill="#FAF9F7"/>
</svg>
