<svg width="92" height="24" viewBox="0 0 92 24" fill="none" xmlns="http://www.w3.org/2000/svg">
<path d="M55.3137 19.6897V13.4061C55.3137 10.0451 54.4369 8.07236 51.2951 8.07236C49.2493 8.07236 46.9843 9.24139 45.6691 11.068C45.2307 9.09526 44.0617 8.07236 41.8697 8.07236C40.1892 8.07236 38.0703 8.94913 36.4629 11.068V7.70703L30.1793 9.60671V10.0451C30.1793 10.0451 31.4945 10.6296 31.4945 12.5293V19.6166C31.4945 21.6624 30.7639 22.6854 30.0332 23.1968V23.6352H37.7781V23.1968C37.1205 22.6854 36.4629 21.7355 36.4629 19.6166V11.7987C37.1936 11.4333 37.9973 11.2141 38.7279 11.2141C40.0431 11.2141 40.9199 11.8717 40.9199 13.6984V19.6166C40.9199 21.8086 40.2623 22.6854 39.6047 23.1968V23.6352H47.2035V23.1968C46.5459 22.7584 45.8883 21.8086 45.8883 19.6166V13.1869C45.8883 12.6755 45.8883 12.164 45.8152 11.7256C46.3998 11.3603 47.2035 11.2141 48.0072 11.2141C49.3224 11.2141 50.3453 11.7987 50.3453 13.6984V19.6166C50.3453 21.8086 49.6877 22.6854 49.0301 23.1968V23.6352H56.775V23.1968C56.1174 22.7584 55.3137 21.8086 55.3137 19.6897Z" fill="#3E4251"/>
<path d="M91.5619 21.9547C90.539 21.9547 89.9544 21.5163 89.9544 20.4203V14.2829C89.9544 10.5565 89.0777 7.99927 83.1594 7.99927C79.9445 7.99927 77.3873 9.3875 77.3873 11.6525C77.3873 12.9677 78.4102 13.8445 79.5792 13.8445C80.9675 13.8445 81.7712 12.8216 81.7712 11.5064C81.7712 10.8488 81.4789 10.2643 81.0405 9.82589C81.4058 9.24137 82.2095 8.94911 83.0133 8.94911C85.0591 8.94911 84.986 10.6296 84.986 13.5522V15.0866C84.5476 15.0135 84.0362 15.0135 83.4517 15.0135C80.0907 15.0135 76.8027 16.5479 76.8027 19.9089C76.8027 22.2469 78.4102 23.8544 80.8944 23.8544C82.9402 23.8544 84.4746 22.9776 85.3513 21.8816C86.0089 23.3429 87.251 23.8544 88.4201 23.8544C90.2467 23.8544 91.1235 23.3429 92.0003 22.4661V21.9547H91.5619ZM83.5978 21.6624C82.3557 21.6624 81.7712 20.6395 81.7712 19.3243C81.7712 17.4247 82.7941 16.1095 84.986 16.1095V19.8358C84.986 20.2742 84.986 20.7126 85.0591 21.0048C84.6938 21.3702 84.2554 21.6624 83.5978 21.6624Z" fill="#3E4251"/>
<path d="M12.2019 15.5974C11.6904 15.0129 11.1789 14.3553 10.6675 13.6247L11.4712 12.9671C13.3709 11.3597 15.0514 9.89837 17.5356 8.87546V8.43707H10.4483V8.87546C11.8365 10.1906 11.1789 12.0903 9.86377 13.4055L7.3065 15.9628H6.42973V0.911377L0.146139 2.81106V3.24945C0.146139 3.24945 1.4613 3.83397 1.4613 5.73366V19.6891C1.4613 21.7349 0.73065 22.7578 0 23.2693V23.7077H7.89103V23.2693C7.23345 22.7578 6.42973 21.808 6.42973 19.6891V16.9857H7.08731C8.18329 18.3739 8.98699 19.543 9.7907 20.4928C11.8365 22.9039 13.3709 23.9999 15.8551 23.9999C16.878 23.9999 17.974 23.6346 18.6316 23.0501V22.6847C16.878 21.1504 15.2706 19.3968 12.2019 15.5974Z" fill="#3E4251"/>
<path d="M68.8754 8.07206C66.5373 8.07206 64.9299 9.53336 64.0531 11.1408V0.838623L57.7695 2.73832V3.1767C57.7695 3.1767 59.0847 3.76123 59.0847 5.66092V21.4429V22.6851V23.8541H59.6692C59.6692 23.8541 60.1076 23.4888 60.6191 23.1965C62.0804 23.6349 63.8339 23.8541 65.5875 23.8541C70.3367 23.8541 74.6475 21.3699 74.6475 15.2324C74.6475 11.5061 72.6017 8.07206 68.8754 8.07206ZM66.3912 22.9042C65.3683 22.9042 64.4915 22.3197 64.0531 21.7352V11.8714C64.7838 11.5792 65.5144 11.2138 66.3181 11.2138C68.3639 11.2138 69.606 13.3327 69.606 17.2782C69.606 21.2238 68.2178 22.9042 66.3912 22.9042Z" fill="#3E4251"/>
<path d="M26.4453 19.5846V8.04028L20.1617 9.93998V10.3784C20.1617 10.3784 21.4769 10.9629 21.4769 12.8626V19.6576C21.4769 21.7034 20.7463 22.7263 20.0156 23.2378V23.6762H27.9066V23.2378C27.3221 22.6533 26.4453 21.6304 26.4453 19.5846Z" fill="#3E4251"/>
<path d="M21.259 6.7253C21.259 6.7253 22.5011 6.21385 24.3278 5.84853C26.1544 5.4832 27.1042 3.43738 26.5928 1.68382L26.2275 0.368652C26.2275 0.368652 24.9853 0.95317 23.1587 1.24543C21.259 1.61075 20.3822 3.65658 20.8937 5.41014L21.259 6.7253Z" fill="#3E4251"/>
</svg>
